# xmcd
#
# Track frame offsets:
#	150
#	10872
#	29919
#	43307
#	56315
#	70859
#	88089
#	103280
#	114964
#	132813
#	149649
#
# Disc length: 2185 seconds
#
# Revision: 0
# Processed by: cddbd v1.5.2PL0 Copyright (c) Steve Scherf et al.
# Submitted via: EasyCDDAExtractor 11.9.9.666
#
DISCID=a008870b
DTITLE=Louie Allen - Redneck Alley
DYEAR=2006
DGENRE=Country
TTITLE0=Honky Tonk Lake
TTITLE1=I Thought Cheating Was Winning
TTITLE2=A Two Step Above the Rest
TTITLE3=Redneck Alley
TTITLE4=I've Been Living in Poverty
TTITLE5=She Wants to Marry a Cowboy
TTITLE6=Little Bitty Country Boy
TTITLE7=If She'll Leave Her Mama
TTITLE8=She Had the Nicest Pair of B.B.B. Boots
TTITLE9=Catch That Mystery Train
TTITLE10=Hole in the River
EXTD=
EXTT0=
EXTT1=
EXTT2=
EXTT3=
EXTT4=
EXTT5=
EXTT6=
EXTT7=
EXTT8=
EXTT9=
EXTT10=
PLAYORDER=
